<svg xmlns="http://www.w3.org/2000/svg" xmlns:xlink="http://www.w3.org/1999/xlink" width="224pt" height="659pt" viewBox="0.00 0.00 224.00 659.00">
<g id="graph0" class="graph" transform="scale(1 1) rotate(0) translate(4 654.89)">
<title>EvaluationLogic</title>
<!-- Start -->
<g id="node1" class="node">
<title>Start</title>
<ellipse fill="#e8f4ff" stroke="black" cx="107.96" cy="-629.34" rx="62.55" ry="21.55"/>
<text xml:space="preserve" text-anchor="middle" x="107.96" y="-626.04" font-family="Inter" font-size="11.00">Start Evaluation</text>
</g>
<!-- Normalize -->
<g id="node2" class="node">
<title>Normalize</title>
<path fill="#f7fbff" stroke="black" d="M156.53,-578.79C156.53,-578.79 59.4,-578.79 59.4,-578.79 53.4,-578.79 47.4,-572.79 47.4,-566.79 47.4,-566.79 47.4,-520.71 47.4,-520.71 47.4,-514.71 53.4,-508.71 59.4,-508.71 59.4,-508.71 156.53,-508.71 156.53,-508.71 162.53,-508.71 168.53,-514.71 168.53,-520.71 168.53,-520.71 168.53,-566.79 168.53,-566.79 168.53,-572.79 162.53,-578.79 156.53,-578.79"/>
<text xml:space="preserve" text-anchor="middle" x="107.96" y="-560.25" font-family="Inter" font-size="11.00">Normalization</text>
<text xml:space="preserve" text-anchor="middle" x="107.96" y="-547.05" font-family="Inter" font-size="11.00">• Lowercased</text>
<text xml:space="preserve" text-anchor="middle" x="107.96" y="-533.85" font-family="Inter" font-size="11.00">• Strip punctuation</text>
<text xml:space="preserve" text-anchor="middle" x="107.96" y="-520.65" font-family="Inter" font-size="11.00">• Remove extra spaces</text>
</g>
<!-- Start&#45;&gt;Normalize -->
<g id="edge1" class="edge">
<title>Start-&gt;Normalize</title>
<path fill="none" stroke="black" d="M107.96,-607.3C107.96,-607.3 107.96,-590.51 107.96,-590.51"/>
<polygon fill="black" stroke="black" points="111.46,-590.51 107.96,-580.51 104.46,-590.51 111.46,-590.51"/>
</g>
<!-- Match -->
<g id="node3" class="node">
<title>Match</title>
<path fill="#f7fbff" stroke="black" d="M184.32,-479.71C184.32,-479.71 31.6,-479.71 31.6,-479.71 25.6,-479.71 19.6,-473.71 19.6,-467.71 19.6,-467.71 19.6,-434.83 19.6,-434.83 19.6,-428.83 25.6,-422.83 31.6,-422.83 31.6,-422.83 184.32,-422.83 184.32,-422.83 190.32,-422.83 196.32,-428.83 196.32,-434.83 196.32,-434.83 196.32,-467.71 196.32,-467.71 196.32,-473.71 190.32,-479.71 184.32,-479.71"/>
<text xml:space="preserve" text-anchor="middle" x="107.96" y="-461.17" font-family="Inter" font-size="11.00">Keyword Matching</text>
<text xml:space="preserve" text-anchor="middle" x="107.96" y="-447.97" font-family="Inter" font-size="11.00">For each keyword:</text>
<text xml:space="preserve" text-anchor="middle" x="107.96" y="-434.77" font-family="Inter" font-size="11.00">✔ If in candidate answer → matched</text>
</g>
<!-- Normalize&#45;&gt;Match -->
<g id="edge2" class="edge">
<title>Normalize-&gt;Match</title>
<path fill="none" stroke="black" d="M107.96,-508.25C107.96,-508.25 107.96,-491.44 107.96,-491.44"/>
<polygon fill="black" stroke="black" points="111.46,-491.44 107.96,-481.44 104.46,-491.44 111.46,-491.44"/>
</g>
<!-- Score -->
<g id="node4" class="node">
<title>Score</title>
<path fill="#f7fbff" stroke="black" d="M196.59,-393.83C196.59,-393.83 19.34,-393.83 19.34,-393.83 13.34,-393.83 7.34,-387.83 7.34,-381.83 7.34,-381.83 7.34,-362.15 7.34,-362.15 7.34,-356.15 13.34,-350.15 19.34,-350.15 19.34,-350.15 196.59,-350.15 196.59,-350.15 202.59,-350.15 208.59,-356.15 208.59,-362.15 208.59,-362.15 208.59,-381.83 208.59,-381.83 208.59,-387.83 202.59,-393.83 196.59,-393.83"/>
<text xml:space="preserve" text-anchor="middle" x="107.96" y="-375.29" font-family="Inter" font-size="11.00">Scoring</text>
<text xml:space="preserve" text-anchor="middle" x="107.96" y="-362.09" font-family="Inter" font-size="11.00">baseScore = (matched / total) * maxScore</text>
</g>
<!-- Match&#45;&gt;Score -->
<g id="edge3" class="edge">
<title>Match-&gt;Score</title>
<path fill="none" stroke="black" d="M107.96,-422.64C107.96,-422.64 107.96,-405.61 107.96,-405.61"/>
<polygon fill="black" stroke="black" points="111.46,-405.61 107.96,-395.61 104.46,-405.61 111.46,-405.61"/>
</g>
<!-- Bonus -->
<g id="node5" class="node">
<title>Bonus</title>
<path fill="#f7fbff" stroke="black" d="M149.91,-321.15C149.91,-321.15 66.02,-321.15 66.02,-321.15 60.02,-321.15 54.02,-315.15 54.02,-309.15 54.02,-309.15 54.02,-276.27 54.02,-276.27 54.02,-270.27 60.02,-264.27 66.02,-264.27 66.02,-264.27 149.91,-264.27 149.91,-264.27 155.91,-264.27 161.91,-270.27 161.91,-276.27 161.91,-276.27 161.91,-309.15 161.91,-309.15 161.91,-315.15 155.91,-321.15 149.91,-321.15"/>
<text xml:space="preserve" text-anchor="middle" x="107.96" y="-302.61" font-family="Inter" font-size="11.00">Bonus</text>
<text xml:space="preserve" text-anchor="middle" x="107.96" y="-289.41" font-family="Inter" font-size="11.00">+1 if &gt;20 words</text>
<text xml:space="preserve" text-anchor="middle" x="107.96" y="-276.21" font-family="Inter" font-size="11.00">Cap = maxScore + 1</text>
</g>
<!-- Score&#45;&gt;Bonus -->
<g id="edge4" class="edge">
<title>Score-&gt;Bonus</title>
<path fill="none" stroke="black" d="M107.96,-349.9C107.96,-349.9 107.96,-333.01 107.96,-333.01"/>
<polygon fill="black" stroke="black" points="111.46,-333.01 107.96,-323.01 104.46,-333.01 111.46,-333.01"/>
</g>
<!-- Weight -->
<g id="node6" class="node">
<title>Weight</title>
<path fill="#f7fbff" stroke="black" d="M203.92,-235.27C203.92,-235.27 12,-235.27 12,-235.27 6,-235.27 0,-229.27 0,-223.27 0,-223.27 0,-190.39 0,-190.39 0,-184.39 6,-178.39 12,-178.39 12,-178.39 203.92,-178.39 203.92,-178.39 209.92,-178.39 215.92,-184.39 215.92,-190.39 215.92,-190.39 215.92,-223.27 215.92,-223.27 215.92,-229.27 209.92,-235.27 203.92,-235.27"/>
<text xml:space="preserve" text-anchor="middle" x="107.96" y="-216.73" font-family="Inter" font-size="11.00">Weighted Aggregation</text>
<text xml:space="preserve" text-anchor="middle" x="107.96" y="-203.53" font-family="Inter" font-size="11.00">Easy=1, Medium=2, Hard=3</text>
<text xml:space="preserve" text-anchor="middle" x="107.96" y="-190.33" font-family="Inter" font-size="11.00">final_score = Σ(scoreᵢ×weightᵢ)/Σ(weights)</text>
</g>
<!-- Bonus&#45;&gt;Weight -->
<g id="edge5" class="edge">
<title>Bonus-&gt;Weight</title>
<path fill="none" stroke="black" d="M107.96,-264.11C107.96,-264.11 107.96,-247.1 107.96,-247.1"/>
<polygon fill="black" stroke="black" points="111.46,-247.1 107.96,-237.1 104.46,-247.1 111.46,-247.1"/>
</g>
<!-- Example -->
<g id="node7" class="node">
<title>Example</title>
<polygon fill="#fff7e6" stroke="black" points="136.43,-149.39 73.49,-149.39 73.49,-72.11 142.43,-72.11 142.43,-143.39 136.43,-149.39"/>
<polyline fill="none" stroke="black" points="136.43,-149.39 136.43,-143.39"/>
<polyline fill="none" stroke="black" points="142.43,-143.39 136.43,-143.39"/>
<text xml:space="preserve" text-anchor="middle" x="107.96" y="-131.75" font-family="Inter" font-size="10.00">Example</text>
<text xml:space="preserve" text-anchor="middle" x="107.96" y="-119.75" font-family="Inter" font-size="10.00">Easy: 6,7</text>
<text xml:space="preserve" text-anchor="middle" x="107.96" y="-107.75" font-family="Inter" font-size="10.00">Medium: 8,5</text>
<text xml:space="preserve" text-anchor="middle" x="107.96" y="-95.75" font-family="Inter" font-size="10.00">Hard: 9,6</text>
<text xml:space="preserve" text-anchor="middle" x="107.96" y="-83.75" font-family="Inter" font-size="10.00">Final ≈ 7.2</text>
</g>
<!-- Weight&#45;&gt;Example -->
<g id="edge6" class="edge">
<title>Weight-&gt;Example</title>
<path fill="none" stroke="black" d="M107.96,-178C107.96,-178 107.96,-161.37 107.96,-161.37"/>
<polygon fill="black" stroke="black" points="111.46,-161.37 107.96,-151.37 104.46,-161.37 111.46,-161.37"/>
</g>
<!-- End -->
<g id="node8" class="node">
<title>End</title>
<ellipse fill="#e8f4ff" stroke="black" cx="107.96" cy="-21.55" rx="47.86" ry="21.55"/>
<text xml:space="preserve" text-anchor="middle" x="107.96" y="-18.25" font-family="Inter" font-size="11.00">Final Score</text>
</g>
<!-- Example&#45;&gt;End -->
<g id="edge7" class="edge">
<title>Example-&gt;End</title>
<path fill="none" stroke="black" d="M107.96,-71.62C107.96,-71.62 107.96,-54.76 107.96,-54.76"/>
<polygon fill="black" stroke="black" points="111.46,-54.76 107.96,-44.76 104.46,-54.76 111.46,-54.76"/>
</g>
</g>
</svg>